<?xml version="1.0" encoding="utf-8"?>
<!-- Generator: Adobe Illustrator 16.0.0, SVG Export Plug-In . SVG Version: 6.00 Build 0)  -->
<!DOCTYPE svg PUBLIC "-//W3C//DTD SVG 1.1//EN" "http://www.w3.org/Graphics/SVG/1.1/DTD/svg11.dtd">
<svg version="1.1" id="Слой_1" xmlns="http://www.w3.org/2000/svg" xmlns:xlink="http://www.w3.org/1999/xlink" x="0px" y="0px"
	 width="600px" height="600px" viewBox="0 0 600 600" enable-background="new 0 0 600 600" xml:space="preserve">
<g>
	<path fill="#fff" d="M300,60c-2.762,0-5,2.239-5,5v215c0,2.05,1.236,3.806,3,4.578L298,300c0,1.104,0.896,2,2,2s2-0.896,2-2
		v-15.422c1.765-0.772,3-2.529,3-4.578V65C305,62.239,302.762,60,300,60z"/>
</g>
<path fill-rule="evenodd" clip-rule="evenodd" fill="#fff" d="M300,292c4.418,0,8,3.582,8,8s-3.582,8-8,8c-4.418,0-8-3.582-8-8
	S295.582,292,300,292z"/>
<path fill-rule="evenodd" clip-rule="evenodd" fill="#ff4d88" d="M300,296c2.209,0,4,1.79,4,4c0,2.209-1.791,4-4,4s-4-1.79-4-4
	C296,297.791,297.791,296,300,296z"/>
</svg>
