<?xml version="1.0" encoding="utf-8"?>
<!-- Generator: Adobe Illustrator 16.0.0, SVG Export Plug-In . SVG Version: 6.00 Build 0)  -->
<!DOCTYPE svg PUBLIC "-//W3C//DTD SVG 1.1//EN" "http://www.w3.org/Graphics/SVG/1.1/DTD/svg11.dtd">
<svg version="1.1" id="Слой_1" xmlns="http://www.w3.org/2000/svg" xmlns:xlink="http://www.w3.org/1999/xlink" x="0px" y="0px"
	 width="662px" height="662px" viewBox="0 0 662 662" enable-background="new 0 0 662 662" xml:space="preserve">
<path fill-rule="evenodd" clip-rule="evenodd" fill="#ffffff" d="M331,46c2.761,0,5,2.238,5,5c0,2.761-2.239,5-5,5s-5-2.239-5-5
	C326,48.238,328.239,46,331,46z"/>
<path fill-rule="evenodd" clip-rule="evenodd" fill="#ffffff" d="M331,609c1.104,0,2,0.896,2,2s-0.896,2-2,2s-2-0.896-2-2
	S329.896,609,331,609z"/>
<path fill-rule="evenodd" clip-rule="evenodd" fill="#ffffff" d="M472,86.781c0.957,0.552,1.284,1.776,0.732,2.732
	c-0.552,0.957-1.775,1.284-2.732,0.733c-0.957-0.552-1.284-1.776-0.732-2.732S471.043,86.228,472,86.781z"/>
<path fill-rule="evenodd" clip-rule="evenodd" fill="#ffffff" d="M192,571.755c0.957,0.552,1.284,1.775,0.732,2.732
	c-0.552,0.956-1.775,1.284-2.732,0.731c-0.957-0.551-1.284-1.775-0.732-2.731C189.82,571.531,191.043,571.203,192,571.755z"/>
<path fill-rule="evenodd" clip-rule="evenodd" fill="#ffffff" d="M575.219,190c0.552,0.957,0.224,2.18-0.732,2.731
	c-0.957,0.553-2.18,0.225-2.732-0.731c-0.552-0.957-0.225-2.18,0.732-2.731C573.443,188.716,574.667,189.043,575.219,190z"/>
<path fill-rule="evenodd" clip-rule="evenodd" fill="#ffffff" d="M90.245,470c0.552,0.957,0.224,2.18-0.732,2.731
	c-0.957,0.553-2.18,0.225-2.732-0.731c-0.552-0.957-0.224-2.18,0.732-2.732S89.693,469.043,90.245,470z"/>
<path fill-rule="evenodd" clip-rule="evenodd" fill="#ffffff" d="M613,331c0,1.104-0.896,2-2,2s-2-0.896-2-2s0.896-2,2-2
	S613,329.896,613,331z"/>
<path fill-rule="evenodd" clip-rule="evenodd" fill="#ffffff" d="M53,331c0,1.104-0.896,2-2,2s-2-0.896-2-2s0.896-2,2-2
	S53,329.896,53,331z"/>
<path fill-rule="evenodd" clip-rule="evenodd" fill="#ffffff" d="M575.219,472c-0.552,0.957-1.776,1.284-2.732,0.731
	c-0.957-0.552-1.285-1.775-0.732-2.731c0.553-0.957,1.775-1.284,2.732-0.732C575.443,469.82,575.771,471.043,575.219,472z"/>
<path fill-rule="evenodd" clip-rule="evenodd" fill="#ffffff" d="M90.245,192c-0.552,0.956-1.776,1.285-2.732,0.731
	c-0.957-0.552-1.284-1.774-0.732-2.731c0.552-0.957,1.776-1.284,2.732-0.731C90.469,189.82,90.797,191.043,90.245,192z"/>
<path fill-rule="evenodd" clip-rule="evenodd" fill="#ffffff" d="M472,575.219c-0.957,0.553-2.18,0.225-2.732-0.731
	c-0.552-0.957-0.225-2.18,0.732-2.732s2.18-0.224,2.732,0.732C473.284,573.444,472.957,574.667,472,575.219z"/>
<path fill-rule="evenodd" clip-rule="evenodd" fill="#ffffff" d="M192,90.245c-0.957,0.552-2.18,0.224-2.732-0.733
	c-0.552-0.956-0.225-2.18,0.732-2.732c0.957-0.552,2.18-0.224,2.732,0.732S192.957,89.693,192,90.245z"/>
<path fill="#ffffff" d="M493.107,50.843c-1.231-0.711-2.501-0.774-3.593-0.333l3.51-6.079l6.205,3.583l0.609-1.055l-7.311-4.22
	l-5.221,9.043l1.08,0.624c1.17-1.1,2.554-1.406,4.01-0.565c1.759,1.015,2.053,2.826,0.733,5.112l-1.407,2.437
	c-1.581,2.738-3.368,3.281-5.026,2.323c-1.683-0.972-2.146-2.78-0.993-4.894l-1.105-0.638c-1.477,2.731-0.812,5.293,1.475,6.612
	c2.336,1.349,4.84,0.551,6.755-2.765l1.421-2.462C495.903,54.701,495.342,52.133,493.107,50.843z"/>
<path fill="#ffffff" d="M614.062,160.464l-4.277-1.55l-1.356,0.783l4.108,1.547l-16.027,9.253l0.638,1.105l17.509-10.109
	L614.062,160.464z"/>
<path fill="#ffffff" d="M601.272,179.502c1.393,2.412,4.137,3.104,6.725,1.611l9.395-5.424c2.587-1.494,3.36-4.217,1.967-6.629
	c-1.392-2.412-4.137-3.104-6.724-1.611l-9.396,5.424C600.652,174.367,599.88,177.09,601.272,179.502z M602.327,178.893
	c-1.044-1.809-0.459-3.754,1.55-4.915l9.396-5.424c2.009-1.16,3.987-0.694,5.031,1.115c1.044,1.809,0.474,3.779-1.536,4.939
	l-9.395,5.424C605.363,181.193,603.372,180.702,602.327,178.893z"/>
<path fill="#ffffff" d="M661.406,325.524l-2.93-3.481h-1.566l2.785,3.394h-18.506v1.276h20.218V325.524z"/>
<path fill="#ffffff" d="M654.677,335.239c0-1.421-0.58-2.553-1.508-3.278h7.02v7.165h1.218v-8.441h-10.442v1.247
	c1.538,0.464,2.495,1.508,2.495,3.191c0,2.03-1.421,3.19-4.061,3.19h-2.813c-3.162,0-4.525-1.276-4.525-3.19
	c0-1.944,1.334-3.249,3.742-3.307v-1.276c-3.104,0.087-4.989,1.944-4.989,4.583c0,2.697,1.943,4.467,5.772,4.467h2.843
	C652.733,339.59,654.677,337.821,654.677,335.239z"/>
<path fill="#ffffff" d="M605.187,476.297l-4.699,8.139l1.055,0.609l4.061-7.034c5,2.886,3.774,11.39,8.823,14.305
	c2.261,1.305,4.897,0.684,6.265-1.742c1.291-2.236,0.442-4.769-2.008-6.384l-0.638,1.105c2.016,1.265,2.534,3.037,1.591,4.67
	c-0.99,1.773-2.849,2.208-4.557,1.221c-4.472-2.582-3.311-11.089-8.938-14.338L605.187,476.297z"/>
<path fill="#ffffff" d="M596.453,490.846c-1.392,2.412-0.62,5.135,1.967,6.629l9.396,5.424c2.587,1.494,5.332,0.801,6.724-1.611
	c1.393-2.412,0.62-5.135-1.967-6.629l-9.395-5.424C600.59,487.741,597.845,488.434,596.453,490.846z M597.508,491.455
	c1.044-1.809,3.021-2.275,5.031-1.114l9.395,5.424c2.01,1.16,2.595,3.105,1.55,4.914c-1.044,1.809-3.036,2.3-5.045,1.14
	l-9.396-5.424C597.034,495.234,596.463,493.263,597.508,491.455z"/>
<path fill="#ffffff" d="M495.214,594.266l-8.139,4.699l0.609,1.055l7.034-4.061c2.886,4.999-2.427,11.751,0.488,16.8
	c1.306,2.261,3.899,3.041,6.297,1.624c2.235-1.291,2.767-3.909,1.453-6.533l-1.105,0.638c1.114,2.104,0.676,3.897-0.957,4.84
	c-1.744,1.04-3.57,0.487-4.557-1.221c-2.582-4.471,2.677-11.259-0.572-16.886L495.214,594.266z"/>
<path fill="#ffffff" d="M487.635,614.316c1.231-0.71,1.92-1.779,2.084-2.945l3.51,6.08l-6.205,3.582l0.609,1.055l7.31-4.221
	l-5.221-9.043l-1.08,0.624c0.367,1.563-0.059,2.915-1.516,3.756c-1.758,1.015-3.474,0.364-4.794-1.922l-1.407-2.437
	c-1.581-2.738-1.157-4.557,0.501-5.514c1.683-0.972,3.48-0.469,4.734,1.587l1.105-0.638c-1.627-2.644-4.178-3.349-6.464-2.029
	c-2.336,1.349-2.896,3.917-0.982,7.233l1.421,2.462C482.896,614.809,485.399,615.607,487.635,614.316z"/>
<path fill="#ffffff" d="M338.1,653.023h0.203l-4.728,7.513v0.899h8.557v-1.218h-6.904l4.554-7.281v-1.044h-1.595
	c-2.176,0-3.684-1.276-3.684-3.8v-1.798c0-2.843,1.334-4.206,3.51-4.206c1.886,0,3.336,1.189,3.423,4.061h1.276
	c0-3.452-2.06-5.309-4.728-5.309c-2.814,0-4.757,1.944-4.757,5.454v1.798C333.227,651.138,334.996,653.023,338.1,653.023z"/>
<path fill="#ffffff" d="M325.252,640.812c-2.785,0-4.757,2.03-4.757,5.018v10.849c0,2.988,1.972,5.018,4.757,5.018
	s4.757-2.03,4.757-5.018V645.83C330.01,642.842,328.037,640.812,325.252,640.812z M325.252,642.03c2.088,0,3.481,1.479,3.481,3.8
	v10.849c0,2.321-1.393,3.8-3.481,3.8s-3.51-1.479-3.51-3.8V645.83C321.743,643.509,323.164,642.03,325.252,642.03z"/>
<path fill="#ffffff" d="M175.547,613.09l0.176,0.101l-7.851,4.143l-0.45,0.779l7.411,4.278l0.609-1.055l-5.979-3.452l7.584-4.028
	l0.522-0.904l-1.382-0.798c-1.884-1.088-2.552-2.947-1.29-5.133l0.899-1.557c1.421-2.462,3.259-2.976,5.143-1.888
	c1.633,0.942,2.294,2.698,0.934,5.228l1.105,0.638c1.726-2.989,0.871-5.626-1.44-6.961c-2.437-1.407-5.091-0.696-6.846,2.344
	l-0.899,1.557C172.269,609.02,172.859,611.538,175.547,613.09z"/>
<path fill="#ffffff" d="M163.92,608.287c1.231,0.71,2.501,0.774,3.593,0.333l-3.51,6.079l-6.205-3.583l-0.609,1.055l7.31,4.221
	l5.221-9.043l-1.08-0.624c-1.17,1.099-2.553,1.406-4.01,0.565c-1.759-1.016-2.053-2.827-0.733-5.112l1.407-2.437
	c1.581-2.738,3.368-3.281,5.026-2.323c1.683,0.972,2.146,2.78,0.993,4.894l1.105,0.638c1.477-2.731,0.812-5.292-1.475-6.612
	c-2.336-1.349-4.84-0.551-6.755,2.765l-1.421,2.462C161.124,604.428,161.685,606.996,163.92,608.287z"/>
<path fill="#ffffff" d="M56.93,490.365l1.218,2.11l-6.481,3.742l0.638,1.105l6.481-3.742l2.843,4.924l-13.887,2.692l0.653,1.13
	l14.39-2.748l0.678-0.392l-3.597-6.23l4.924-2.843l-0.638-1.105l-4.924,2.843l-1.219-2.11L56.93,490.365z"/>
<path fill="#ffffff" d="M59.836,480.954c-1.392-2.412-4.137-3.105-6.724-1.611l-9.395,5.424c-2.587,1.494-3.36,4.217-1.967,6.629
	c1.392,2.412,4.137,3.104,6.724,1.611l9.395-5.424C60.456,486.088,61.229,483.365,59.836,480.954z M58.781,481.563
	c1.044,1.809,0.459,3.754-1.55,4.915l-9.395,5.424c-2.01,1.16-3.987,0.694-5.031-1.115s-0.474-3.779,1.536-4.939l9.395-5.424
	C55.745,479.263,57.737,479.754,58.781,481.563z"/>
<path fill="#ffffff" d="M13.966,331.298v2.437H6.482v1.276h7.484v5.686l-13.372-4.612v1.305l13.836,4.815h0.783v-7.194h5.685v-1.276
	h-5.685v-2.437H13.966z"/>
<path fill="#ffffff" d="M7.323,324.977c0,1.421,0.58,2.553,1.508,3.278h-7.02v-7.165H0.594v8.441h10.443v-1.248
	c-1.537-0.464-2.495-1.508-2.495-3.19c0-2.031,1.421-3.191,4.061-3.191h2.814c3.162,0,4.525,1.276,4.525,3.191
	c0,1.943-1.334,3.249-3.742,3.307v1.276c3.104-0.087,4.989-1.943,4.989-4.583c0-2.698-1.943-4.467-5.772-4.467h-2.843
	C9.267,320.626,7.323,322.396,7.323,324.977z"/>
<path fill="#ffffff" d="M47.566,174.569c-0.711,1.23-0.774,2.5-0.333,3.593l-6.079-3.51l3.582-6.205l-1.055-0.609l-4.22,7.311
	l9.043,5.221l0.624-1.081c-1.099-1.17-1.406-2.553-0.565-4.01c1.015-1.758,2.826-2.053,5.112-0.733l2.437,1.407
	c2.738,1.581,3.281,3.368,2.323,5.026c-0.972,1.683-2.78,2.146-4.894,0.993l-0.638,1.105c2.731,1.477,5.292,0.812,6.612-1.475
	c1.349-2.336,0.551-4.84-2.766-6.754l-2.462-1.421C51.424,171.772,48.856,172.333,47.566,174.569z"/>
<path fill="#ffffff" d="M65.634,171.004c1.392-2.412,0.62-5.135-1.967-6.629l-9.395-5.424c-2.587-1.494-5.332-0.801-6.725,1.61
	s-0.62,5.135,1.968,6.629l9.395,5.424C61.497,174.108,64.242,173.416,65.634,171.004z M64.579,170.395
	c-1.044,1.809-3.022,2.275-5.031,1.115l-9.395-5.424c-2.01-1.161-2.594-3.106-1.55-4.915s3.036-2.3,5.046-1.14l9.395,5.424
	C65.053,166.615,65.624,168.586,64.579,170.395z"/>
<path fill="#ffffff" d="M164.344,53.469c-1.231,0.711-1.92,1.779-2.084,2.945l-3.51-6.079l6.205-3.583l-0.609-1.055l-7.31,4.22
	l5.221,9.043l1.08-0.624c-0.367-1.563,0.059-2.915,1.516-3.756c1.758-1.015,3.474-0.365,4.793,1.922l1.407,2.437
	c1.581,2.738,1.157,4.557-0.501,5.514c-1.683,0.972-3.48,0.469-4.735-1.587l-1.105,0.638c1.627,2.645,4.178,3.349,6.463,2.029
	c2.336-1.349,2.897-3.917,0.982-7.232l-1.421-2.462C169.084,52.977,166.58,52.178,164.344,53.469z"/>
<path fill="#ffffff" d="M174.516,47.596c-1.231,0.711-1.92,1.779-2.084,2.945l-3.51-6.079l6.205-3.583l-0.609-1.055l-7.31,4.22
	l5.221,9.043l1.08-0.624c-0.367-1.563,0.059-2.915,1.516-3.756c1.758-1.015,3.474-0.364,4.793,1.922l1.407,2.437
	c1.581,2.738,1.157,4.557-0.501,5.514c-1.683,0.972-3.48,0.469-4.735-1.587l-1.105,0.638c1.627,2.644,4.178,3.349,6.463,2.029
	c2.336-1.349,2.897-3.917,0.982-7.232l-1.421-2.462C179.255,47.104,176.751,46.306,174.516,47.596z"/>
<path fill="#ffffff" d="M324.756,7.497c-1.538,0-2.669,0.638-3.452,1.683V5.206c0-2.292,1.421-3.684,3.336-3.684
	c1.74,0,3.162,1.305,3.278,3.51h1.276c-0.145-2.843-2.088-4.728-4.554-4.728c-2.64,0-4.612,1.944-4.612,4.931v11.109
	c0,2.872,2.088,4.815,4.67,4.815c2.553,0,4.612-1.944,4.612-5.047v-3.684C329.311,9.441,327.222,7.497,324.756,7.497z
	 M328.034,16.112c0,2.408-1.479,3.8-3.336,3.8c-1.885,0-3.394-1.392-3.394-3.568v-4.09c0-2.146,1.451-3.539,3.278-3.539
	c1.915,0,3.452,1.392,3.452,3.713V16.112z"/>
<path fill="#ffffff" d="M337.226,21.188c2.785,0,4.757-2.031,4.757-5.018V5.322c0-2.988-1.972-5.018-4.757-5.018
	c-2.784,0-4.757,2.031-4.757,5.018V16.17C332.469,19.158,334.441,21.188,337.226,21.188z M337.226,19.97
	c-2.088,0-3.48-1.479-3.48-3.8V5.322c0-2.321,1.392-3.8,3.48-3.8c2.089,0,3.51,1.479,3.51,3.8V16.17
	C340.736,18.491,339.314,19.97,337.226,19.97z"/>
<path fill="#ffffff" d="M364.188,15.644l-1.324,0.835l-0.097,0.924l1.191-0.719l-0.616,5.864l0.775,0.082l0.727-6.918L364.188,15.644z"
	/>
<path fill="#ffffff" d="M393.756,27.31l3.422,0.727l0.153-0.724l-2.629-0.559c0.37-1.74,3.148-2.171,3.554-4.077
	c0.183-0.86-0.265-1.732-1.331-1.959c-0.968-0.206-1.729,0.348-2.021,1.43l0.752,0.16c0.167-0.69,0.577-0.981,1.114-0.867
	c0.577,0.123,0.814,0.592,0.708,1.091c-0.328,1.545-3.114,1.913-3.601,4.2L393.756,27.31z"/>
<path fill="#ffffff" d="M428.114,32.123l2.107-1.732l0.17-0.523l-2.984-0.97l-0.226,0.694l2.043,0.664l-1.957,1.655l-0.182,0.561
	l0.599,0.195c0.637,0.207,0.934,0.65,0.684,1.42l-0.142,0.438c-0.269,0.827-0.709,1.083-1.327,0.882
	c-0.522-0.17-0.801-0.576-0.555-1.462l-0.75-0.244c-0.389,1.261,0.088,2.12,1.077,2.441c1.055,0.343,1.889-0.122,2.293-1.367
	l0.148-0.456C429.432,33.339,429.154,32.481,428.114,32.123z"/>
<path fill="#ffffff" d="M460.064,46.236l-0.749-0.333l1.024-2.301l-0.658-0.293l-1.061,2.285l-1.47-0.655l3.137-3.483l-0.739-0.329
	l-3.336,3.733l-0.175,0.393l2.274,1.012l-0.732,1.643l0.703,0.313l0.731-1.643l0.749,0.333L460.064,46.236z"/>
<path fill="#ffffff" d="M516.115,76.505c-0.348-0.253-0.725-0.329-1.08-0.265l0.687-0.946c0.376-0.517,0.897-0.571,1.326-0.26
	c0.388,0.282,0.496,0.78,0.164,1.305l0.639,0.464c0.568-0.884,0.41-1.84-0.351-2.392c-0.8-0.582-1.793-0.439-2.422,0.427
	l-2.138,2.943c-0.652,0.897-0.457,1.904,0.335,2.48c0.784,0.57,1.794,0.438,2.446-0.459l0.682-0.938
	C517.014,78.022,516.827,77.021,516.115,76.505z M515.083,79.337c-0.394,0.542-0.934,0.606-1.355,0.3
	c-0.428-0.311-0.542-0.851-0.149-1.393l0.658-0.906c0.388-0.534,0.921-0.604,1.333-0.304c0.437,0.317,0.559,0.863,0.183,1.381
	L515.083,79.337z"/>
<path fill="#ffffff" d="M541.833,94.125l-0.501,0.557l1.827,1.645l-5.566,3.434l0.616,0.555l5.786-3.573l0.334-0.371L541.833,94.125z"
	/>
<path fill="#ffffff" d="M564.813,121.815c0.539,0.12,1.128-0.047,1.596-0.468l0.111-0.101c0.839-0.755,0.925-1.707,0.216-2.494
	c-0.709-0.788-1.67-0.81-2.509-0.054l-0.112,0.1c-0.468,0.421-0.703,0.997-0.632,1.538c-0.563-0.207-1.208-0.042-1.743,0.439
	l-0.148,0.134c-0.906,0.816-0.98,1.824-0.218,2.671c0.755,0.839,1.766,0.871,2.672,0.055l0.148-0.134
	C564.729,123.021,564.96,122.396,564.813,121.815z M564.74,119.299c0.52-0.468,1.03-0.47,1.424-0.031
	c0.395,0.438,0.339,0.945-0.18,1.413l-0.104,0.094c-0.542,0.488-1.074,0.51-1.469,0.072c-0.395-0.438-0.317-0.965,0.225-1.453
	L564.74,119.299z M563.518,123.049c-0.557,0.501-1.13,0.507-1.572,0.017s-0.383-1.067,0.174-1.569l0.148-0.134
	c0.564-0.508,1.145-0.506,1.586-0.016s0.376,1.06-0.188,1.568L563.518,123.049z"/>
<path fill="#ffffff" d="M587.581,144.488c-0.57-0.785-1.57-0.972-2.468-0.32l-0.938,0.682c-0.841,0.611-0.972,1.621-0.455,2.332
	c0.253,0.348,0.588,0.537,0.945,0.586l-0.946,0.688c-0.518,0.376-1.029,0.267-1.341-0.162c-0.282-0.388-0.23-0.895,0.248-1.292
	l-0.464-0.639c-0.814,0.666-0.958,1.623-0.406,2.383c0.582,0.801,1.57,0.972,2.436,0.343l2.943-2.138
	C588.031,146.298,588.157,145.28,587.581,144.488z M584.402,146.846c-0.317-0.437-0.265-0.994,0.253-1.37l0.922-0.669
	c0.542-0.394,1.076-0.288,1.381,0.133c0.311,0.429,0.253,0.978-0.289,1.371l-0.906,0.658
	C585.23,147.356,584.702,147.259,584.402,146.846z"/>
<path fill="#ffffff" d="M620.115,200.749l-1.386-0.729l-0.849,0.378l1.218,0.672l-5.387,2.398l0.317,0.712l6.355-2.829L620.115,200.749
	z"/>
<path fill="#ffffff" d="M621.286,203.379l-1.385-0.729l-0.849,0.378l1.218,0.672l-5.387,2.398l0.317,0.712l6.355-2.829L621.286,203.379
	z"/>
<path fill="#ffffff" d="M631.955,231.093l-1.302-0.87l-0.884,0.288l1.142,0.795l-5.608,1.822l0.241,0.741l6.616-2.149L631.955,231.093z
	"/>
<path fill="#ffffff" d="M625.826,234.873l1.081,3.327l0.704-0.229l-0.831-2.557c1.692-0.55,3.455,1.641,5.309,1.039
	c0.836-0.272,1.367-1.096,1.031-2.132c-0.306-0.941-1.166-1.324-2.249-1.035l0.238,0.732c0.681-0.2,1.138,0.009,1.308,0.532
	c0.182,0.561-0.105,1.001-0.59,1.159c-1.502,0.488-3.214-1.741-5.438-1.018L625.826,234.873z"/>
<path fill="#ffffff" d="M640.747,263.089l-1.204-1.001l-0.909,0.193l1.052,0.91l-5.768,1.226l0.162,0.763l6.804-1.446L640.747,263.089z
	"/>
<path fill="#ffffff" d="M638.692,267.073l2.554,0.959l0.538-0.114l-0.653-3.07L640.417,265l0.447,2.102l-2.412-0.866l-0.577,0.123
	l0.131,0.616c0.139,0.655-0.096,1.134-0.888,1.302l-0.45,0.096c-0.851,0.181-1.292-0.073-1.428-0.708
	c-0.114-0.538,0.098-0.981,0.989-1.211l-0.165-0.772c-1.286,0.294-1.792,1.137-1.576,2.154c0.231,1.085,1.05,1.575,2.331,1.303
	l0.469-0.1C638.297,268.822,638.901,268.153,638.692,267.073z"/>
<path fill="#ffffff" d="M646.146,295.809l-1.093-1.121l-0.924,0.097l0.951,1.016l-5.865,0.616l0.082,0.775l6.918-0.727L646.146,295.809
	z"/>
<path fill="#ffffff" d="M642.295,301.822l-0.085-0.815l2.505-0.263l-0.075-0.716l-2.509,0.224l-0.168-1.6l4.584,0.975l-0.084-0.805
	l-4.901-1.022l-0.427,0.045l0.26,2.475l-1.789,0.188l0.08,0.766l1.79-0.188l0.085,0.815L642.295,301.822z"/>
<path fill="#ffffff" d="M646.585,362.011l-0.835-1.324l-0.924-0.097l0.719,1.191l-5.864-0.617l-0.082,0.775l6.918,0.727
	L646.585,362.011z"/>
<path fill="#ffffff" d="M643.807,365.499c0.045-0.428-0.078-0.792-0.31-1.068l1.163,0.122c0.636,0.067,0.943,0.491,0.888,1.018
	c-0.05,0.477-0.428,0.819-1.048,0.794l-0.082,0.785c1.05,0.05,1.798-0.565,1.896-1.499c0.103-0.984-0.517-1.773-1.581-1.885
	l-3.618-0.38c-1.104-0.116-1.877,0.557-1.98,1.531c-0.101,0.964,0.517,1.772,1.621,1.889l1.153,0.121
	C642.941,367.036,643.715,366.374,643.807,365.499z M640.837,366.021c-0.666-0.07-0.992-0.506-0.938-1.023
	c0.056-0.527,0.466-0.896,1.132-0.826l1.113,0.117c0.656,0.069,0.983,0.495,0.93,1.002c-0.057,0.537-0.468,0.916-1.104,0.849
	L640.837,366.021z"/>
<path fill="#ffffff" d="M641.535,395.205l-0.693-1.404l-0.909-0.193l0.591,1.259l-5.768-1.226l-0.162,0.762l6.804,1.446
	L641.535,395.205z"/>
<path fill="#ffffff" d="M641.257,396.558l-0.733-0.156l-0.511,2.405l-5.757-3.104l-0.172,0.812l5.987,3.224l0.489,0.104
	L641.257,396.558z"/>
<path fill="#ffffff" d="M633.273,426.847l-0.542-1.468l-0.884-0.288l0.456,1.314l-5.608-1.822l-0.241,0.741l6.616,2.149
	L633.273,426.847z"/>
<path fill="#ffffff" d="M628.622,430.266c0.165,0.526,0.604,0.953,1.203,1.147l0.143,0.046c1.074,0.349,1.94-0.053,2.268-1.06
	c0.327-1.008-0.134-1.851-1.208-2.2l-0.143-0.046c-0.599-0.194-1.214-0.111-1.648,0.221c-0.103-0.59-0.568-1.067-1.252-1.29
	l-0.19-0.062c-1.16-0.376-2.07,0.063-2.422,1.147c-0.349,1.074,0.129,1.965,1.289,2.342l0.19,0.062
	C627.535,430.795,628.191,430.683,628.622,430.266z M630.764,428.944c0.666,0.216,0.922,0.657,0.739,1.218
	c-0.182,0.561-0.648,0.767-1.313,0.55l-0.133-0.043c-0.694-0.226-0.979-0.676-0.796-1.236c0.182-0.561,0.677-0.757,1.371-0.532
	L630.764,428.944z M626.905,429.76c-0.713-0.231-1.004-0.726-0.801-1.353c0.204-0.627,0.733-0.865,1.446-0.634l0.19,0.062
	c0.722,0.235,1.011,0.738,0.807,1.366c-0.204,0.627-0.73,0.855-1.452,0.621L626.905,429.76z"/>
<path fill="#ffffff" d="M621.557,458.014l-0.386-1.518l-0.849-0.378l0.315,1.355l-5.387-2.398l-0.317,0.712l6.355,2.83L621.557,458.014
	z"/>
<path fill="#ffffff" d="M620.229,461.265c0.394-0.886,0.056-1.846-0.958-2.297l-1.059-0.472c-0.95-0.422-1.89-0.031-2.248,0.772
	c-0.175,0.393-0.171,0.777-0.035,1.111l-1.068-0.476c-0.584-0.26-0.745-0.759-0.53-1.243c0.195-0.438,0.66-0.647,1.242-0.432
	l0.321-0.721c-0.983-0.372-1.884-0.019-2.267,0.84c-0.402,0.904-0.056,1.846,0.921,2.281l3.324,1.48
	C618.887,462.56,619.831,462.16,620.229,461.265z M616.598,459.692c0.219-0.493,0.728-0.726,1.312-0.466l1.041,0.463
	c0.612,0.272,0.787,0.788,0.576,1.263c-0.216,0.484-0.72,0.708-1.332,0.435l-1.022-0.455
	C616.569,460.664,616.39,460.157,616.598,459.692z"/>
<path fill="#ffffff" d="M583.756,510.688l-2.056,2.83l0.598,0.435l1.58-2.175c1.439,1.046,0.703,3.76,2.28,4.905
	c0.711,0.517,1.69,0.462,2.331-0.419c0.582-0.801,0.386-1.721-0.485-2.428l-0.452,0.623c0.563,0.433,0.662,0.926,0.339,1.37
	c-0.347,0.477-0.872,0.503-1.285,0.204c-1.277-0.928-0.481-3.623-2.373-4.998L583.756,510.688z"/>
<path fill="#ffffff" d="M586.301,519.087l-0.062-1.564l-0.752-0.546l0.027,1.391l-4.771-3.466l-0.458,0.631l5.627,4.089
	L586.301,519.087z"/>
<path fill="#ffffff" d="M564.004,535.663l-2.341,2.6l0.55,0.495l1.799-1.998c1.322,1.19,0.306,3.813,1.754,5.117
	c0.654,0.589,1.633,0.636,2.362-0.173c0.662-0.735,0.563-1.671-0.229-2.465l-0.515,0.572c0.514,0.49,0.561,0.99,0.193,1.398
	c-0.395,0.438-0.92,0.409-1.298,0.068c-1.174-1.057-0.1-3.653-1.838-5.218L564.004,535.663z"/>
<path fill="#ffffff" d="M561.247,538.724l-2.341,2.6l0.55,0.495l1.799-1.998c1.322,1.19,0.306,3.813,1.754,5.117
	c0.654,0.588,1.633,0.636,2.362-0.173c0.662-0.735,0.563-1.671-0.229-2.465l-0.515,0.572c0.514,0.49,0.562,0.99,0.193,1.398
	c-0.395,0.438-0.92,0.409-1.298,0.068c-1.174-1.057-0.1-3.654-1.837-5.219L561.247,538.724z"/>
<path fill="#ffffff" d="M541.342,558.89l-2.6,2.341l0.495,0.549l1.998-1.799c1.19,1.322-0.095,3.824,1.209,5.272
	c0.588,0.654,1.557,0.804,2.367,0.075c0.735-0.662,0.735-1.604,0.031-2.476l-0.572,0.515c0.46,0.541,0.455,1.043,0.046,1.411
	c-0.438,0.395-0.958,0.311-1.298-0.068c-1.057-1.174,0.283-3.644-1.282-5.382L541.342,558.89z"/>
<path fill="#ffffff" d="M539.748,565.92l0.446,2.691l0.368,0.409l2.333-2.1l-0.488-0.542l-1.597,1.438l-0.455-2.522l-0.395-0.438
	l-0.468,0.421c-0.498,0.448-1.03,0.484-1.572-0.118l-0.308-0.341c-0.582-0.646-0.583-1.156-0.101-1.591
	c0.409-0.368,0.899-0.406,1.544,0.251l0.587-0.528c-0.898-0.967-1.881-0.983-2.653-0.288c-0.824,0.742-0.839,1.697,0.037,2.67
	l0.321,0.356C538.035,566.454,538.917,566.641,539.748,565.92z"/>
<path fill="#ffffff" d="M516.275,579.696l-2.83,2.056l0.435,0.599l2.175-1.581c1.046,1.439-0.493,3.793,0.652,5.37
	c0.517,0.711,1.465,0.962,2.346,0.322c0.8-0.582,0.898-1.518,0.289-2.458l-0.623,0.452c0.401,0.586,0.343,1.085-0.101,1.408
	c-0.478,0.347-0.985,0.209-1.285-0.203c-0.928-1.278,0.662-3.595-0.712-5.486L516.275,579.696z"/>
<path fill="#ffffff" d="M511.532,586.28l0.663-0.481l1.48,2.038l0.583-0.423l-1.448-2.061l1.302-0.946l1.448,4.458l0.655-0.476
	l-1.565-4.756l-0.253-0.348l-2.013,1.463l-1.058-1.456l-0.623,0.453l1.058,1.455l-0.663,0.482L511.532,586.28z"/>
<path fill="#ffffff" d="M460.734,612.687l-3.195,1.422l0.301,0.676l2.456-1.093c0.724,1.625-1.271,3.607-0.479,5.388
	c0.358,0.804,1.233,1.245,2.228,0.802c0.904-0.402,1.195-1.298,0.794-2.345l-0.703,0.313c0.271,0.657,0.11,1.132-0.392,1.356
	c-0.539,0.24-1.007,0-1.214-0.466c-0.643-1.443,1.395-3.378,0.444-5.515L460.734,612.687z"/>
<path fill="#ffffff" d="M456.96,619.4c0.393-0.175,0.647-0.463,0.77-0.802l0.476,1.068c0.26,0.584,0.046,1.063-0.438,1.278
	c-0.438,0.195-0.923,0.039-1.212-0.511l-0.721,0.321c0.481,0.934,1.388,1.275,2.246,0.893c0.904-0.402,1.277-1.334,0.842-2.311
	l-1.479-3.324c-0.451-1.013-1.42-1.348-2.315-0.949c-0.886,0.395-1.277,1.334-0.826,2.348l0.472,1.059
	C455.196,619.419,456.157,619.758,456.96,619.4z M455.023,617.089c-0.272-0.611-0.058-1.112,0.417-1.323
	c0.484-0.216,1.009-0.044,1.281,0.567l0.455,1.022c0.269,0.603,0.063,1.099-0.403,1.306c-0.493,0.22-1.027,0.053-1.287-0.532
	L455.023,617.089z"/>
<path fill="#ffffff" d="M430.213,624.824l-3.327,1.081l0.229,0.703l2.557-0.831c0.55,1.692-1.641,3.455-1.039,5.308
	c0.271,0.836,1.096,1.368,2.132,1.031c0.941-0.306,1.324-1.166,1.035-2.249l-0.732,0.238c0.2,0.681-0.009,1.138-0.532,1.308
	c-0.561,0.182-1.001-0.106-1.158-0.591c-0.488-1.501,1.74-3.213,1.018-5.438L430.213,624.824z"/>
<path fill="#ffffff" d="M428.765,632.661l-0.232-0.713l-2.338,0.76l-0.19-6.538l-0.789,0.256l0.202,6.797l0.154,0.475L428.765,632.661z
	"/>
<path fill="#ffffff" d="M399.437,633.483l-3.422,0.727l0.154,0.724l2.63-0.559c0.37,1.74-1.994,3.264-1.588,5.171
	c0.183,0.86,0.947,1.474,2.013,1.248c0.968-0.206,1.438-1.021,1.264-2.128l-0.753,0.16c0.128,0.698-0.127,1.131-0.665,1.245
	c-0.577,0.123-0.985-0.21-1.091-0.708c-0.328-1.544,2.067-3.014,1.581-5.302L399.437,633.483z"/>
<path fill="#ffffff" d="M393.238,638.509c-0.374,0.407-0.523,1-0.392,1.616l0.031,0.146c0.235,1.105,1.016,1.654,2.052,1.434
	s1.536-1.042,1.301-2.146l-0.031-0.146c-0.131-0.616-0.511-1.107-1.016-1.317c0.46-0.384,0.641-1.025,0.491-1.729l-0.042-0.196
	c-0.253-1.193-1.089-1.761-2.204-1.524c-1.105,0.235-1.638,1.094-1.384,2.287l0.041,0.195
	C392.236,637.833,392.662,638.346,393.238,638.509z M395.454,639.704c0.146,0.684-0.108,1.126-0.685,1.249
	c-0.577,0.123-0.988-0.178-1.133-0.863l-0.029-0.137c-0.151-0.714,0.096-1.185,0.672-1.308s0.994,0.208,1.146,0.921L395.454,639.704
	z M392.817,636.77c-0.156-0.733,0.126-1.233,0.771-1.37c0.646-0.137,1.116,0.202,1.272,0.935l0.042,0.196
	c0.158,0.743-0.134,1.244-0.779,1.381s-1.106-0.204-1.264-0.947L392.817,636.77z"/>
<path fill="#ffffff" d="M367.339,638.99l-3.479,0.366l0.078,0.735l2.674-0.281c0.186,1.769-2.324,3.038-2.12,4.976
	c0.092,0.875,0.788,1.565,1.871,1.452c0.984-0.104,1.537-0.865,1.479-1.984l-0.765,0.08c0.054,0.708-0.245,1.111-0.792,1.169
	c-0.586,0.062-0.957-0.312-1.01-0.819c-0.165-1.57,2.371-2.781,2.126-5.107L367.339,638.99z"/>
<path fill="#ffffff" d="M362.186,646.677c0.964-0.102,1.626-0.875,1.51-1.978l-0.121-1.153c-0.108-1.034-0.917-1.652-1.792-1.56
	c-0.427,0.045-0.758,0.24-0.98,0.525l-0.122-1.163c-0.067-0.636,0.284-1.024,0.811-1.08c0.477-0.05,0.89,0.248,0.995,0.86
	l0.785-0.083c-0.169-1.038-0.926-1.641-1.86-1.543c-0.984,0.104-1.626,0.875-1.515,1.938l0.38,3.618
	C360.393,646.162,361.211,646.78,362.186,646.677z M361.732,642.745c0.537-0.056,0.993,0.268,1.06,0.904l0.119,1.133
	c0.07,0.666-0.289,1.075-0.806,1.13c-0.527,0.055-0.973-0.27-1.043-0.936l-0.117-1.113
	C360.876,643.207,361.225,642.798,361.732,642.745z"/>
<path fill="#ffffff" d="M299.58,643.688l-1.701,2.132l-0.058,0.547l3.121,0.328l0.076-0.726l-2.137-0.225l1.569-2.026l0.062-0.586
	l-0.626-0.066c-0.666-0.07-1.049-0.442-0.964-1.247l0.048-0.457c0.091-0.865,0.469-1.207,1.115-1.139
	c0.547,0.058,0.903,0.396,0.847,1.315l0.785,0.083c0.118-1.314-0.527-2.055-1.562-2.164c-1.103-0.116-1.822,0.512-1.959,1.814
	l-0.05,0.477C298.039,642.772,298.489,643.553,299.58,643.688z"/>
<path fill="#ffffff" d="M295.753,646.14l1.324-0.835l0.097-0.924l-1.191,0.719l0.616-5.864l-0.775-0.082l-0.727,6.918L295.753,646.14z"
	/>
<path fill="#ffffff" d="M267.674,638.82l-1.915,1.943l-0.114,0.538l3.07,0.653l0.152-0.714l-2.102-0.447l1.773-1.851l0.123-0.577
	l-0.616-0.131c-0.655-0.139-0.998-0.549-0.829-1.341l0.096-0.45c0.181-0.851,0.592-1.151,1.228-1.016
	c0.538,0.114,0.856,0.488,0.705,1.396l0.772,0.165c0.254-1.295-0.31-2.1-1.327-2.315c-1.085-0.231-1.866,0.318-2.138,1.599
	l-0.1,0.469C266.236,637.748,266.603,638.571,267.674,638.82z"/>
<path fill="#ffffff" d="M266.219,634.26l-3.421-0.727l-0.154,0.723l2.629,0.559c-0.37,1.74-3.148,2.171-3.554,4.078
	c-0.183,0.86,0.266,1.732,1.331,1.958c0.968,0.206,1.729-0.348,2.021-1.43l-0.753-0.16c-0.167,0.69-0.576,0.981-1.114,0.867
	c-0.577-0.123-0.814-0.592-0.708-1.091c0.329-1.544,3.114-1.913,3.601-4.2L266.219,634.26z"/>
<path fill="#ffffff" d="M235.854,630.517l-2.108,1.732l-0.169,0.522l2.984,0.97l0.226-0.694l-2.043-0.664l1.957-1.655l0.182-0.561
	l-0.599-0.194c-0.637-0.207-0.934-0.65-0.684-1.42l0.142-0.438c0.269-0.827,0.709-1.083,1.327-0.882
	c0.523,0.17,0.801,0.576,0.555,1.462l0.751,0.244c0.389-1.261-0.089-2.12-1.077-2.441c-1.055-0.343-1.889,0.122-2.294,1.367
	l-0.148,0.456C234.537,629.301,234.815,630.158,235.854,630.517z"/>
<path fill="#ffffff" d="M231.917,629.238l-2.107,1.732l-0.17,0.522l2.985,0.97l0.226-0.694l-2.044-0.664l1.957-1.655l0.182-0.561
	l-0.599-0.194c-0.637-0.207-0.934-0.65-0.684-1.42l0.142-0.438c0.269-0.827,0.709-1.083,1.327-0.882
	c0.523,0.17,0.801,0.576,0.555,1.462l0.751,0.244c0.389-1.261-0.089-2.12-1.078-2.441c-1.055-0.343-1.889,0.122-2.293,1.367
	l-0.148,0.456C230.6,628.021,230.878,628.879,231.917,629.238z"/>
<path fill="#ffffff" d="M205.095,618.943l-2.277,1.503l-0.224,0.502l2.867,1.276l0.297-0.667l-1.963-0.874l2.119-1.441l0.24-0.539
	l-0.575-0.256c-0.612-0.272-0.861-0.745-0.532-1.484l0.187-0.42c0.354-0.794,0.819-1.003,1.412-0.739
	c0.502,0.224,0.736,0.656,0.399,1.513l0.721,0.321c0.519-1.213,0.134-2.118-0.816-2.541c-1.014-0.451-1.892-0.076-2.424,1.12
	l-0.195,0.438C203.912,617.596,204.099,618.478,205.095,618.943z"/>
<path fill="#ffffff" d="M200.045,614.922l0.749,0.333l-1.024,2.301l0.657,0.292l1.061-2.284l1.47,0.654l-3.137,3.482l0.74,0.33
	l3.336-3.733l0.175-0.393l-2.273-1.012l0.731-1.644l-0.703-0.313l-0.731,1.644l-0.749-0.333L200.045,614.922z"/>
<path fill="#ffffff" d="M148.052,586.526l-2.54,0.997l-0.323,0.444l2.539,1.845l0.429-0.59l-1.738-1.263l2.372-0.97l0.347-0.477
	l-0.509-0.37c-0.542-0.394-0.688-0.907-0.212-1.562l0.271-0.372c0.511-0.704,1.009-0.811,1.535-0.429
	c0.445,0.323,0.584,0.795,0.076,1.563l0.639,0.464c0.759-1.079,0.571-2.044-0.27-2.655c-0.897-0.652-1.834-0.468-2.604,0.591
	l-0.282,0.388C147.175,584.962,147.175,585.864,148.052,586.526z"/>
<path fill="#ffffff" d="M144.21,584.279c0.348,0.252,0.725,0.329,1.08,0.266l-0.688,0.946c-0.376,0.518-0.897,0.571-1.326,0.26
	c-0.388-0.282-0.496-0.78-0.164-1.305l-0.639-0.464c-0.568,0.884-0.41,1.839,0.35,2.392c0.8,0.582,1.794,0.438,2.422-0.427
	l2.139-2.943c0.652-0.897,0.457-1.904-0.336-2.479c-0.784-0.57-1.794-0.439-2.446,0.459l-0.682,0.938
	C143.312,582.761,143.499,583.762,144.21,584.279z M145.243,581.446c0.394-0.542,0.935-0.606,1.355-0.3
	c0.429,0.311,0.542,0.851,0.149,1.393l-0.658,0.905c-0.388,0.534-0.92,0.604-1.333,0.304c-0.437-0.317-0.559-0.863-0.183-1.38
	L145.243,581.446z"/>
<path fill="#ffffff" d="M122.059,565.746l-2.63,0.725l-0.368,0.409l2.332,2.1l0.488-0.542L120.284,567l2.461-0.716l0.395-0.438
	l-0.468-0.421c-0.498-0.448-0.589-0.974-0.047-1.576l0.308-0.342c0.582-0.646,1.088-0.701,1.571-0.266
	c0.409,0.368,0.498,0.851-0.088,1.562l0.586,0.528c0.868-0.994,0.781-1.973,0.009-2.668c-0.824-0.743-1.775-0.657-2.651,0.316
	l-0.321,0.356C121.35,564.099,121.255,564.996,122.059,565.746z"/>
<path fill="#ffffff" d="M118.628,566.49l0.501-0.557l-1.827-1.646l5.566-3.434l-0.617-0.555l-5.786,3.573l-0.334,0.371L118.628,566.49z
	"/>
<path fill="#ffffff" d="M98.994,542.984l-2.691,0.446l-0.408,0.368l2.1,2.332l0.542-0.488l-1.438-1.597l2.522-0.456l0.438-0.395
	l-0.421-0.468c-0.448-0.498-0.484-1.03,0.118-1.572l0.342-0.308c0.646-0.582,1.156-0.583,1.591-0.101
	c0.368,0.409,0.406,0.899-0.251,1.544l0.528,0.587c0.967-0.898,0.983-1.881,0.288-2.653c-0.742-0.824-1.697-0.839-2.67,0.037
	l-0.356,0.321C98.461,541.271,98.273,542.153,98.994,542.984z"/>
<path fill="#ffffff" d="M95.801,538.647c-0.539-0.121-1.128,0.047-1.596,0.468l-0.111,0.1c-0.839,0.756-0.925,1.707-0.216,2.494
	c0.709,0.787,1.67,0.81,2.51,0.054l0.111-0.101c0.468-0.421,0.703-0.996,0.633-1.538c0.563,0.207,1.208,0.042,1.743-0.439
	l0.148-0.134c0.906-0.816,0.98-1.824,0.218-2.671c-0.756-0.839-1.766-0.871-2.672-0.055l-0.149,0.134
	C95.886,537.441,95.655,538.066,95.801,538.647z M95.875,541.163c-0.52,0.468-1.029,0.47-1.424,0.031
	c-0.395-0.438-0.34-0.945,0.18-1.413l0.104-0.094c0.542-0.488,1.074-0.51,1.469-0.072s0.317,0.965-0.225,1.453L95.875,541.163z
	 M97.097,537.413c0.557-0.501,1.13-0.507,1.572-0.017s0.383,1.067-0.174,1.569l-0.149,0.134c-0.564,0.508-1.145,0.506-1.586,0.016
	s-0.376-1.06,0.188-1.568L97.097,537.413z"/>
<path fill="#ffffff" d="M78.044,517.486l-2.723,0.163l-0.445,0.323l1.845,2.539l0.59-0.429l-1.263-1.738l2.556-0.189l0.477-0.347
	l-0.37-0.509c-0.394-0.542-0.374-1.075,0.281-1.551l0.372-0.27c0.703-0.511,1.21-0.459,1.592,0.066
	c0.323,0.445,0.31,0.937-0.411,1.509l0.464,0.639c1.056-0.792,1.174-1.768,0.563-2.608c-0.652-0.897-1.6-1.012-2.659-0.242
	l-0.388,0.282C77.693,515.728,77.414,516.585,78.044,517.486z"/>
<path fill="#ffffff" d="M73.202,515.838c0.57,0.784,1.571,0.971,2.468,0.319l0.938-0.682c0.841-0.611,0.972-1.621,0.455-2.332
	c-0.252-0.348-0.587-0.537-0.945-0.586l0.946-0.688c0.518-0.376,1.03-0.266,1.341,0.163c0.282,0.388,0.23,0.895-0.248,1.292
	l0.464,0.639c0.814-0.665,0.958-1.623,0.406-2.383c-0.582-0.8-1.571-0.971-2.436-0.343l-2.943,2.138
	C72.752,514.028,72.627,515.045,73.202,515.838z M76.381,513.479c0.317,0.437,0.265,0.994-0.253,1.37l-0.922,0.67
	c-0.542,0.394-1.076,0.287-1.381-0.133c-0.311-0.429-0.253-0.978,0.289-1.371l0.906-0.658
	C75.553,512.969,76.081,513.067,76.381,513.479z"/>
<path fill="#ffffff" d="M45.085,457.48l0.333,0.749l-2.301,1.024l0.293,0.657l2.317-0.988l0.655,1.47l-4.662,0.489l0.329,0.74
	l4.977-0.542l0.393-0.175l-1.012-2.273l1.644-0.731l-0.313-0.703l-1.644,0.732l-0.333-0.749L45.085,457.48z"/>
<path fill="#ffffff" d="M40.488,458.113l1.386,0.729l0.849-0.378l-1.218-0.672l5.387-2.398l-0.317-0.712l-6.355,2.829L40.488,458.113z"
	/>
<path fill="#ffffff" d="M33.655,427.59l0.253,0.78l-2.396,0.778l0.222,0.684l2.408-0.74l0.497,1.53l-4.687,0l0.25,0.77l5.007-0.019
	l0.409-0.133l-0.769-2.367l1.711-0.556l-0.238-0.732l-1.711,0.556l-0.253-0.78L33.655,427.59z"/>
<path fill="#ffffff" d="M35.969,426.5l-1.081-3.327l-0.703,0.229l0.831,2.557c-1.692,0.549-3.455-1.642-5.308-1.039
	c-0.836,0.271-1.367,1.096-1.031,2.132c0.306,0.941,1.166,1.324,2.249,1.035l-0.238-0.732c-0.681,0.2-1.138-0.009-1.308-0.531
	c-0.182-0.561,0.106-1.001,0.59-1.159c1.502-0.488,3.214,1.741,5.438,1.018L35.969,426.5z"/>
<path fill="#ffffff" d="M25.189,395.99l0.17,0.802l-2.463,0.523l0.15,0.704l2.472-0.485l0.335,1.574l-4.661-0.491l0.168,0.792
	l4.981,0.504l0.42-0.089l-0.517-2.435l1.76-0.374l-0.16-0.753l-1.76,0.375l-0.17-0.802L25.189,395.99z"/>
<path fill="#ffffff" d="M23.171,394.281l-2.554-0.959l-0.538,0.114l0.653,3.069l0.714-0.151l-0.447-2.102l2.412,0.867l0.577-0.123
	l-0.131-0.616c-0.139-0.655,0.096-1.134,0.888-1.302l0.45-0.096c0.851-0.181,1.293,0.073,1.428,0.708
	c0.114,0.538-0.098,0.981-0.989,1.211l0.164,0.772c1.286-0.294,1.792-1.137,1.576-2.154c-0.231-1.085-1.05-1.575-2.331-1.303
	l-0.469,0.1C23.565,392.532,22.962,393.202,23.171,394.281z"/>
<path fill="#ffffff" d="M20.086,363.813l0.086,0.815l-2.505,0.263l0.075,0.716l2.509-0.224l0.168,1.601l-4.584-0.976l0.084,0.805
	l4.901,1.022l0.427-0.045l-0.26-2.475l1.789-0.188l-0.081-0.765l-1.789,0.188l-0.086-0.815L20.086,363.813z"/>
<path fill="#ffffff" d="M19.623,359.407l0.086,0.815l-2.505,0.264l0.075,0.715l2.509-0.224l0.168,1.601l-4.585-0.976l0.085,0.805
	l4.901,1.022l0.427-0.045l-0.26-2.475l1.789-0.188l-0.08-0.765l-1.789,0.188l-0.086-0.815L19.623,359.407z"/>
<path fill="#ffffff" d="M20.061,298.428l-0.086,0.815l-2.505-0.264l-0.075,0.716l2.5,0.303l-0.168,1.6l-4.281-1.907l-0.084,0.805
	l4.581,2.019l0.427,0.045l0.26-2.475l1.789,0.188l0.08-0.766l-1.789-0.188l0.085-0.815L20.061,298.428z"/>
<path fill="#ffffff" d="M18.262,295.845c-0.045,0.428,0.078,0.792,0.31,1.068l-1.163-0.123c-0.636-0.066-0.943-0.491-0.888-1.018
	c0.05-0.477,0.428-0.819,1.048-0.794l0.083-0.785c-1.05-0.05-1.798,0.565-1.896,1.499c-0.104,0.984,0.517,1.773,1.581,1.885
	l3.618,0.38c1.103,0.116,1.877-0.557,1.98-1.531c0.101-0.964-0.517-1.773-1.621-1.889l-1.153-0.121
	C19.127,294.308,18.354,294.97,18.262,295.845z M21.232,295.323c0.666,0.07,0.992,0.506,0.938,1.023
	c-0.055,0.527-0.466,0.896-1.132,0.826l-1.113-0.117c-0.656-0.069-0.983-0.496-0.93-1.002c0.056-0.537,0.468-0.916,1.104-0.849
	L21.232,295.323z"/>
<path fill="#ffffff" d="M25.261,265.674l-0.17,0.801l-2.464-0.523l-0.15,0.704l2.455,0.563l-0.334,1.574l-4.059-2.345l-0.168,0.792
	l4.345,2.487l0.42,0.089l0.518-2.434l1.76,0.374l0.16-0.753l-1.76-0.374l0.17-0.801L25.261,265.674z"/>
<path fill="#ffffff" d="M20.868,264.851l0.733,0.156l0.511-2.405l5.757,3.104l0.172-0.812l-5.987-3.224l-0.489-0.104L20.868,264.851z"
	/>
<path fill="#ffffff" d="M33.596,234.592l-0.253,0.779l-2.395-0.778l-0.222,0.685l2.383,0.816l-0.497,1.53l-3.792-2.756l-0.25,0.77
	l4.062,2.928l0.409,0.133l0.769-2.367l1.711,0.556l0.238-0.732l-1.711-0.556l0.253-0.779L33.596,234.592z"/>
<path fill="#ffffff" d="M33.583,231.107c-0.165-0.527-0.605-0.953-1.203-1.148l-0.143-0.046c-1.074-0.349-1.94,0.053-2.268,1.061
	c-0.327,1.007,0.134,1.851,1.208,2.2l0.143,0.046c0.599,0.195,1.215,0.111,1.648-0.221c0.102,0.59,0.567,1.067,1.252,1.289
	l0.19,0.062c1.16,0.377,2.07-0.063,2.422-1.147c0.349-1.074-0.129-1.965-1.288-2.341l-0.19-0.062
	C34.669,230.577,34.012,230.689,33.583,231.107z M31.44,232.428c-0.665-0.216-0.922-0.657-0.74-1.217
	c0.182-0.561,0.648-0.767,1.314-0.551l0.133,0.043c0.694,0.226,0.979,0.675,0.796,1.236c-0.182,0.561-0.677,0.758-1.371,0.532
	L31.44,232.428z M35.299,231.612c0.713,0.232,1.004,0.726,0.801,1.353c-0.204,0.627-0.733,0.865-1.446,0.634l-0.19-0.062
	c-0.722-0.235-1.011-0.738-0.807-1.366s0.73-0.856,1.452-0.621L35.299,231.612z"/>
<path fill="#ffffff" d="M45.345,203.937l-0.333,0.749l-2.301-1.024l-0.293,0.657l2.285,1.061l-0.655,1.47l-3.483-3.137l-0.329,0.74
	l3.733,3.336l0.393,0.175l1.012-2.273l1.643,0.731l0.313-0.703l-1.644-0.731l0.333-0.749L45.345,203.937z"/>
<path fill="#ffffff" d="M42.039,200.132c-0.394,0.885-0.056,1.846,0.958,2.297l1.059,0.472c0.95,0.423,1.89,0.032,2.247-0.772
	c0.175-0.393,0.171-0.777,0.035-1.111l1.068,0.476c0.584,0.26,0.745,0.759,0.53,1.243c-0.195,0.438-0.66,0.647-1.242,0.432
	l-0.321,0.721c0.983,0.372,1.885,0.019,2.267-0.84c0.403-0.904,0.056-1.846-0.921-2.281l-3.323-1.48
	C43.382,198.837,42.438,199.237,42.039,200.132z M45.671,201.706c-0.219,0.493-0.728,0.726-1.312,0.466l-1.041-0.463
	c-0.612-0.272-0.787-0.788-0.575-1.263c0.215-0.484,0.72-0.708,1.332-0.436l1.022,0.455
	C45.699,200.733,45.878,201.24,45.671,201.706z"/>
<path fill="#ffffff" d="M75.578,146.973c-0.229,0.315-0.306,0.642-0.285,0.954l-1.536-1.116l1.34-1.843l-0.582-0.423l-1.803,2.482
	l3.032,2.203l0.452-0.623c-0.305-0.345-0.339-0.741-0.069-1.112c0.347-0.477,0.791-0.476,1.462,0.012l0.574,0.417
	c0.849,0.617,0.956,1.065,0.633,1.51c-0.329,0.453-0.778,0.51-1.386,0.105l-0.464,0.639c0.961,0.649,1.879,0.525,2.473-0.291
	c0.605-0.833,0.403-1.746-0.785-2.609l-0.574-0.417C77.047,146.125,76.13,146.213,75.578,146.973z"/>
<path fill="#ffffff" d="M75.708,142.901l0.062,1.564l0.752,0.546l-0.027-1.391l4.771,3.466l0.458-0.631l-5.628-4.089L75.708,142.901z"
	/>
<path fill="#ffffff" d="M95.799,121.743c-0.261,0.29-0.372,0.607-0.384,0.919l-1.411-1.271l1.525-1.693l-0.535-0.481l-2.053,2.28
	l2.785,2.508l0.515-0.572c-0.267-0.375-0.26-0.772,0.048-1.114c0.395-0.438,0.836-0.391,1.452,0.165l0.527,0.475
	c0.78,0.702,0.839,1.159,0.471,1.568c-0.375,0.416-0.827,0.425-1.389-0.041l-0.528,0.587c0.888,0.746,1.814,0.719,2.49-0.032
	c0.689-0.765,0.583-1.693-0.508-2.676l-0.527-0.475C97.348,121.053,96.427,121.045,95.799,121.743z"/>
<path fill="#ffffff" d="M100.763,123.265l2.341-2.6l-0.55-0.495l-1.799,1.998c-1.322-1.19-0.306-3.813-1.754-5.116
	c-0.654-0.589-1.633-0.637-2.362,0.173c-0.662,0.735-0.563,1.672,0.228,2.465l0.515-0.572c-0.514-0.49-0.561-0.99-0.193-1.398
	c0.395-0.438,0.92-0.409,1.299-0.068c1.174,1.057,0.099,3.654,1.837,5.219L100.763,123.265z"/>
<path fill="#ffffff" d="M118.953,98.311c-0.29,0.261-0.433,0.565-0.478,0.874l-1.271-1.411l1.694-1.525l-0.482-0.535l-2.28,2.053
	l2.508,2.785l0.572-0.515c-0.227-0.401-0.178-0.795,0.164-1.103c0.438-0.394,0.872-0.301,1.427,0.315l0.475,0.528
	c0.702,0.78,0.713,1.24,0.305,1.608c-0.416,0.375-0.867,0.337-1.377-0.186l-0.587,0.529c0.806,0.835,1.729,0.904,2.479,0.229
	c0.765-0.689,0.757-1.624-0.226-2.715l-0.475-0.527C120.565,97.787,119.651,97.682,118.953,98.311z"/>
<path fill="#ffffff" d="M122.264,96.07l-0.446-2.691l-0.368-0.408l-2.333,2.1l0.488,0.542l1.597-1.438l0.456,2.522l0.395,0.438
	l0.468-0.421c0.498-0.448,1.03-0.484,1.572,0.118l0.308,0.342c0.582,0.646,0.583,1.156,0.101,1.59
	c-0.409,0.368-0.899,0.406-1.544-0.251l-0.587,0.528c0.898,0.967,1.88,0.983,2.653,0.288c0.825-0.742,0.839-1.697-0.037-2.67
	l-0.321-0.356C123.976,95.537,123.094,95.349,122.264,96.07z"/>
<path fill="#ffffff" d="M144.413,77.438c-0.315,0.229-0.489,0.516-0.566,0.819l-1.116-1.536l1.844-1.339l-0.423-0.582l-2.482,1.804
	l2.203,3.032l0.623-0.452c-0.184-0.422-0.094-0.809,0.278-1.079c0.477-0.347,0.899-0.208,1.387,0.463l0.417,0.574
	c0.617,0.849,0.58,1.308,0.135,1.631c-0.453,0.329-0.897,0.244-1.351-0.328l-0.639,0.464c0.713,0.914,1.625,1.08,2.441,0.487
	c0.833-0.605,0.923-1.535,0.059-2.724l-0.417-0.574C146.071,77.086,145.173,76.886,144.413,77.438z"/>
<path fill="#ffffff" d="M150.598,75.625l-0.663,0.482l-1.48-2.038l-0.582,0.423l1.448,2.061l-1.302,0.946l-1.448-4.458l-0.655,0.476
	l1.565,4.756l0.253,0.348l2.013-1.463l1.058,1.456l0.623-0.452l-1.058-1.456l0.663-0.481L150.598,75.625z"/>
<path fill="#ffffff" d="M201.126,44.222c-0.356,0.158-0.586,0.403-0.724,0.683l-0.772-1.735l2.082-0.927l-0.293-0.657l-2.803,1.248
	l1.524,3.424l0.703-0.313c-0.091-0.451,0.077-0.811,0.497-0.998c0.539-0.24,0.923-0.017,1.26,0.741l0.289,0.648
	c0.427,0.958,0.295,1.4-0.207,1.624c-0.511,0.228-0.929,0.052-1.253-0.602l-0.721,0.321c0.508,1.043,1.365,1.395,2.287,0.984
	c0.94-0.419,1.222-1.31,0.625-2.652l-0.289-0.648C202.822,44.222,201.985,43.84,201.126,44.222z"/>
<path fill="#ffffff" d="M205.054,42.594c-0.393,0.175-0.647,0.463-0.77,0.802l-0.476-1.068c-0.26-0.584-0.046-1.063,0.438-1.278
	c0.438-0.195,0.923-0.039,1.212,0.51l0.721-0.321c-0.481-0.934-1.388-1.275-2.246-0.893c-0.904,0.403-1.277,1.334-0.842,2.311
	l1.479,3.323c0.451,1.013,1.42,1.348,2.315,0.949c0.886-0.395,1.277-1.334,0.826-2.348l-0.472-1.059
	C206.817,42.574,205.857,42.236,205.054,42.594z M206.99,44.904c0.272,0.612,0.058,1.112-0.417,1.324
	c-0.484,0.215-1.009,0.044-1.281-0.567l-0.455-1.023c-0.269-0.603-0.063-1.099,0.403-1.306c0.493-0.219,1.027-0.052,1.287,0.532
	L206.99,44.904z"/>
<path fill="#ffffff" d="M232.181,32.099c-0.371,0.121-0.625,0.34-0.792,0.604l-0.587-1.806l2.167-0.704l-0.222-0.684l-2.918,0.948
	l1.158,3.564l0.731-0.238c-0.044-0.459,0.161-0.799,0.598-0.941c0.561-0.182,0.919,0.08,1.176,0.869l0.219,0.675
	c0.324,0.998,0.147,1.423-0.375,1.593c-0.532,0.173-0.929-0.045-1.183-0.73l-0.751,0.244c0.396,1.09,1.212,1.529,2.172,1.218
	c0.979-0.318,1.352-1.175,0.898-2.573l-0.219-0.675C233.867,32.276,233.074,31.808,232.181,32.099z"/>
<path fill="#ffffff" d="M233.25,29.334l0.231,0.713l2.338-0.76l0.19,6.538l0.789-0.256l-0.201-6.797l-0.155-0.475L233.25,29.334z"/>
<path fill="#ffffff" d="M263.486,23.509c-0.381,0.081-0.657,0.272-0.851,0.518l-0.395-1.857l2.229-0.474l-0.15-0.704l-3.001,0.638
	l0.779,3.666l0.752-0.16c0.004-0.461,0.244-0.777,0.693-0.873c0.577-0.123,0.906,0.175,1.078,0.987l0.147,0.694
	c0.218,1.026-0.002,1.431-0.54,1.545c-0.547,0.116-0.919-0.142-1.1-0.849l-0.772,0.164c0.28,1.126,1.045,1.648,2.032,1.438
	c1.007-0.214,1.468-1.027,1.162-2.464l-0.147-0.694C265.145,23.861,264.405,23.313,263.486,23.509z"/>
<path fill="#ffffff" d="M268.777,23.488c0.374-0.406,0.523-1,0.392-1.616l-0.031-0.146c-0.234-1.105-1.016-1.654-2.052-1.434
	c-1.036,0.22-1.536,1.042-1.301,2.146l0.031,0.147c0.131,0.616,0.511,1.107,1.016,1.317c-0.46,0.384-0.641,1.025-0.491,1.729
	l0.042,0.196c0.253,1.193,1.089,1.761,2.204,1.524c1.105-0.235,1.638-1.094,1.384-2.287l-0.042-0.196
	C269.779,24.163,269.353,23.651,268.777,23.488z M266.561,22.293c-0.146-0.684,0.108-1.126,0.685-1.249
	c0.577-0.123,0.988,0.178,1.133,0.863l0.029,0.137c0.152,0.713-0.096,1.185-0.672,1.308s-0.994-0.208-1.146-0.921L266.561,22.293z
	 M269.198,25.227c0.156,0.733-0.126,1.232-0.771,1.37s-1.116-0.202-1.272-0.935l-0.042-0.196c-0.158-0.743,0.134-1.244,0.779-1.382
	c0.646-0.137,1.106,0.204,1.264,0.947L269.198,25.227z"/>
<path fill="#ffffff" d="M296.102,18.125c-0.387,0.041-0.682,0.202-0.9,0.426l-0.198-1.888l2.266-0.238l-0.075-0.716l-3.051,0.321
	l0.392,3.728l0.765-0.081c0.053-0.458,0.324-0.747,0.781-0.795c0.586-0.062,0.883,0.269,0.969,1.094l0.074,0.706
	c0.11,1.043-0.152,1.423-0.699,1.48c-0.557,0.059-0.899-0.237-1.005-0.96l-0.785,0.083c0.161,1.149,0.867,1.748,1.871,1.642
	c1.024-0.107,1.567-0.868,1.414-2.329l-0.074-0.706C297.715,18.649,297.037,18.027,296.102,18.125z"/>
<path fill="#ffffff" d="M299.83,15.321c-0.964,0.101-1.626,0.874-1.511,1.978l0.122,1.153c0.108,1.034,0.917,1.652,1.792,1.56
	c0.427-0.045,0.758-0.24,0.979-0.525l0.123,1.163c0.067,0.636-0.284,1.025-0.811,1.08c-0.477,0.05-0.891-0.248-0.995-0.86
	l-0.785,0.083c0.169,1.037,0.926,1.641,1.861,1.543c0.984-0.104,1.626-0.875,1.515-1.938l-0.38-3.618
	C301.622,15.836,300.804,15.219,299.83,15.321z M300.283,19.253c-0.537,0.056-0.993-0.267-1.06-0.904l-0.119-1.133
	c-0.07-0.666,0.289-1.075,0.806-1.13c0.527-0.055,0.973,0.27,1.043,0.935l0.117,1.114C301.139,18.792,300.79,19.2,300.283,19.253z"
	/>
</svg>
