<?xml version="1.0" encoding="utf-8"?>
<!-- Generator: Adobe Illustrator 16.0.0, SVG Export Plug-In . SVG Version: 6.00 Build 0)  -->
<!DOCTYPE svg PUBLIC "-//W3C//DTD SVG 1.1//EN" "http://www.w3.org/Graphics/SVG/1.1/DTD/svg11.dtd">
<svg version="1.1" id="Слой_1" xmlns="http://www.w3.org/2000/svg" xmlns:xlink="http://www.w3.org/1999/xlink" x="0px" y="0px"
	 width="64px" height="64px" viewBox="0 0 64.357 64.356" enable-background="new 0 0 64.357 64.356" xml:space="preserve">
<polygon fill="#5A87C2" points="64.357,35.293 64.357,42.066 64.357,64.356 0,64.356 0,0 64.357,0 "/>
<polygon fill="#FFFFFF" points="23.439,31.526 20.886,31.526 20.886,24.311 18.012,31.558 15.58,31.556 12.682,24.346 12.684,31.52 
	10.162,31.52 10.162,20.706 13.62,20.698 16.817,28.414 20.057,20.698 23.439,20.702 "/>
<polygon fill="#FFFFFF" points="22.829,41.401 22.829,43.872 28.381,43.872 28.381,45.944 20.372,45.944 20.372,35.171 
	28.178,35.171 28.178,37.228 22.847,37.228 22.847,39.489 27.582,39.489 27.582,41.401 "/>
<g>
	<path fill="#FFFFFF" d="M46.171,20.64c0,0-3.051,3.499-4.572,5.244c1.58,1.837,4.814,5.6,4.814,5.6h-3.08
		c0,0-2.748-3.35-3.866-4.734c-0.056-0.07-0.121-0.133-0.263-0.288v4.988h-2.453V20.673h2.421v4.533
		c0.041,0.015,0.083,0.031,0.124,0.046c0.69-0.838,1.38-1.675,2.068-2.514c0.497-0.604,0.983-1.217,1.495-1.81
		c0.113-0.132,0.232-0.276,0.232-0.276L46.171,20.64z"/>
	<path fill="#FFFFFF" d="M18.489,36.099c-0.346,0.546-0.668,1.054-0.953,1.503c-0.81-0.254-1.563-0.579-2.351-0.707
		c-0.551-0.09-1.164,0.026-1.712,0.182c-0.247,0.068-0.557,0.452-0.563,0.698c-0.007,0.279,0.229,0.686,0.479,0.824
		c0.538,0.301,1.149,0.471,1.733,0.687c0.64,0.236,1.298,0.426,1.916,0.706c1.245,0.564,1.977,1.51,1.944,2.929
		c-0.033,1.412-0.783,2.323-2.049,2.859c-2.3,0.975-5.343,0.437-7.204-1.305c0.389-0.525,0.782-1.058,1.2-1.625
		c0.929,0.722,1.94,1.261,3.121,1.305c0.571,0.021,1.179-0.042,1.718-0.225c0.885-0.299,1.011-1.376,0.23-1.894
		c-0.429-0.285-0.951-0.439-1.442-0.618c-0.658-0.239-1.34-0.414-1.99-0.673c-1.357-0.541-2.052-1.524-2.026-2.788
		c0.027-1.314,0.807-2.32,2.179-2.815C14.517,34.494,16.909,34.88,18.489,36.099"/>
	<polygon fill="#FFFFFF" points="29.649,45.947 29.649,35.186 32.088,35.186 32.088,43.865 37.357,43.865 37.357,45.947 	"/>
	<polygon fill="#FFFFFF" points="38.629,35.168 41.038,35.168 41.038,43.855 46.311,43.855 46.311,45.942 38.629,45.942 	"/>
	<path fill="#FFFFFF" d="M30.121,22.697c1.875,0,3.399,1.525,3.399,3.4c0,1.875-1.524,3.4-3.399,3.4s-3.4-1.524-3.4-3.4
		C26.721,24.222,28.246,22.697,30.121,22.697 M30.121,20.354c-3.172,0-5.744,2.572-5.744,5.744c0,3.172,2.572,5.745,5.744,5.745
		s5.744-2.572,5.744-5.745C35.865,22.925,33.293,20.354,30.121,20.354"/>
	<rect x="47.597" y="35.186" fill="#FFFFFF" width="7.784" height="2.042"/>
	<rect x="47.597" y="43.9" fill="#FFFFFF" width="7.784" height="2.042"/>
	<rect x="47.597" y="39.525" fill="#FFFFFF" width="7.784" height="2.042"/>
</g>
</svg>
